<svg preserveAspectRatio="none" overflow="visible" style="display: block;" width="17.9167" height="17.9167" viewBox="0 0 17.9167 17.9167" fill="none" xmlns="http://www.w3.org/2000/svg">
<g id="Group 11594">
<g id="Union">
<path d="M9.79167 13.125C9.79167 13.5852 9.41857 13.9583 8.95833 13.9583C8.4981 13.9583 8.125 13.5852 8.125 13.125C8.125 12.6648 8.4981 12.2917 8.95833 12.2917C9.41857 12.2917 9.79167 12.6648 9.79167 13.125Z" fill="currentColor"/>
<path d="M8.67869 5.40097C9.19463 5.28504 9.70556 5.30951 10.0957 5.46834C10.4631 5.61788 10.7379 5.88794 10.852 6.34445C10.9458 6.71973 10.8183 7.14917 10.518 7.58789C10.2211 8.02184 9.82152 8.3629 9.58369 8.51006L9.57417 8.51595C9.50121 8.56104 9.38711 8.63156 9.27983 8.72261C8.89 9.05344 8.60403 9.36484 8.45798 9.79002C8.33256 10.1551 8.33292 10.5584 8.33329 10.9736L8.33333 11.0413C8.33333 11.3864 8.61316 11.6663 8.95833 11.6663C9.30351 11.6663 9.58333 11.3864 9.58333 11.0413C9.58333 10.5251 9.59091 10.3395 9.64017 10.1961C9.67559 10.093 9.75258 9.96087 10.0887 9.67566C10.1176 9.65109 10.1564 9.62563 10.2414 9.57302C10.6212 9.338 11.1503 8.87737 11.5496 8.29385C11.9457 7.71511 12.2822 6.91131 12.0647 6.04128C11.8455 5.16446 11.2704 4.59694 10.567 4.3106C9.88646 4.03355 9.10572 4.02385 8.40464 4.18139C6.90646 4.51804 5.83333 5.72192 5.83333 7.29118C5.83333 7.63636 6.11316 7.91618 6.45833 7.91618C6.80351 7.91618 7.08333 7.63636 7.08333 7.29118C7.08333 6.36043 7.6969 5.62159 8.67869 5.40097Z" fill="currentColor"/>
<path fill-rule="evenodd" clip-rule="evenodd" d="M4.47035e-08 8.95833C4.47035e-08 4.01078 4.01078 0 8.95833 0C13.9059 0 17.9167 4.01078 17.9167 8.95833C17.9167 13.9059 13.9059 17.9167 8.95833 17.9167C4.01078 17.9167 4.47035e-08 13.9059 4.47035e-08 8.95833ZM8.95833 1.25C4.70114 1.25 1.25 4.70114 1.25 8.95833C1.25 13.2155 4.70114 16.6667 8.95833 16.6667C13.2155 16.6667 16.6667 13.2155 16.6667 8.95833C16.6667 4.70114 13.2155 1.25 8.95833 1.25Z" fill="currentColor"/>
</g>
</g>
</svg>
